<svg xmlns="http://www.w3.org/2000/svg" viewBox="0 0 130.17 24.25" class="capcom logo">
  <defs>
    <style>
      .capcom .cls-1, .capcom .cls-6 {
        fill: #004097;
      }

      .capcom .cls-1, .capcom .cls-2, .capcom .cls-7 {
        stroke: #fff;
      }

      .capcom .cls-1, .capcom .cls-3 {
        stroke-width: 1.36px;
      }

      .capcom .cls-2, .capcom .cls-3, .capcom .cls-7, .capcom .cls-8 {
        fill: none;
      }

      .capcom .cls-2 {
        stroke-width: 1.71px;
      }

      .capcom .cls-3, .capcom .cls-8 {
        stroke: #231815;
      }

      .capcom .cls-4, .capcom .cls-9 {
        fill: #fff;
      }

      .capcom .cls-5 {
        fill: #fccf00;
      }

      .capcom .cls-7 {
        stroke-width: 0.46px;
      }

      .capcom .cls-8 {
        stroke-width: 0.46px;
      }

      .capcom .cls-9 {
        stroke: #004097;
        stroke-width: 0.36px;
      }
    </style>
  </defs>
  <path class="cls-1" d="M22.13,6.15l-5.73,6.06-3.78-2.6s1.24-1.19.1-2.05c-.88-.68-3.37.76-3.26,3.57.12,3.25,2.13,5.09,4.34,5.09a2.64,2.64,0,0,0,2.6-1.66H21v3.82l6.48-17.1h7.41l6,15.37a2.94,2.94,0,0,0,.86,1s0-10.07,0-10.36a1.22,1.22,0,0,0-.21-.79A1.84,1.84,0,0,0,40.74,6V1.28H51.12c5.39,0,6.77,1.46,8.33,4.27A11.11,11.11,0,0,1,68.82.74C73.17.74,76.25,2.35,78,5A13.18,13.18,0,0,1,88,.71a11.38,11.38,0,0,1,10.09,5.5V1.28h10L109.2,4,110,1.28h10.33V5.94s-.6.16-.76.43a3.19,3.19,0,0,0-.14,1.11l1.44,9.2a1.42,1.42,0,0,0,.42.84,1,1,0,0,0,.7.22V23H111.61V19h-5.95v4H95.89V20.43a13.78,13.78,0,0,1-8.17,3.14,14.46,14.46,0,0,1-9.82-4.33V23H71c-6.16,0-11.45-3.38-12.93-9.52a18.69,18.69,0,0,1-7.49,3.71c-.29.06-.43.17-.43.48,0,.57,1.22.77,1.22.77V23h-38C6.33,23,.68,18.21.68,12.1S5.09.8,12.39.8A11,11,0,0,1,22.13,6.15Z"></path>
  <circle class="cls-2" cx="126.3" cy="3.88" r="3.02"></circle>
  <path class="cls-3" d="M126.3,3.88"></path>
  <path class="cls-4" d="M124.63,1.94h2A1.3,1.3,0,0,1,128,3.24a1.27,1.27,0,0,1-.76,1.1l1.1,1.45h-.91l-.92-1.34h-1.06V5.79h-.82Zm2,1.78c.22,0,.63-.07.63-.47s-.09-.53-.56-.53h-1.22v1Z"></path>
  <path class="cls-5" d="M19.4,6.25,16.34,9.45a.81.81,0,0,1-.3.08.77.77,0,0,1-.33-.13l-.37-.32a.14.14,0,0,1-.11-.13,2.11,2.11,0,0,0,.3-.89c0-.52-.11-2.65-3.41-2.65S7.36,8.47,7.36,11s1.57,7.19,6.71,7.19c3,0,3.62-1.68,3.62-1.68h1v4.39H13.09c-6.71,0-10.44-5.25-10.44-9,0-5.81,5.05-9,9.63-9A9.74,9.74,0,0,1,19.4,6.25Z"></path>
  <path class="cls-5" d="M28.86,3.34h4.62l5.63,14.71a4.31,4.31,0,0,0,.71,1.11,2.45,2.45,0,0,0,.92.54V21H33.95v-1.3a.68.68,0,0,0,.65-.33,1,1,0,0,0,.06-1.05c-.16-.38-1.3-3.38-1.3-3.38H27.81l-1.24,3.3a1.48,1.48,0,0,0,0,1c.18.45.81.51.81.51V21H21.94V19.7a2.51,2.51,0,0,0,.87-.54,2.4,2.4,0,0,0,.54-.84Zm-.14,8.82H32.3L30.46,7Z"></path>
  <path class="cls-5" d="M42.9,3.34h8.65c3.2,0,6.38,1.14,6.38,4.81s-2.32,5-4.32,5.9a41.29,41.29,0,0,1-5.36,1.89v2.81a1.23,1.23,0,0,0,.3.52,1.21,1.21,0,0,0,.57.41V21H42.84V19.7a1.48,1.48,0,0,0,.66-.36,1.22,1.22,0,0,0,.32-.6V6a1.26,1.26,0,0,0-.19-.76,4.67,4.67,0,0,0-.73-.51ZM48.31,6v7.52s5.08-2.11,5.08-5.09C53.39,4.74,48.31,6,48.31,6Z"></path>
  <path class="cls-5" d="M76.69,6.28,73.63,9.48a.87.87,0,0,1-.3.08A.77.77,0,0,1,73,9.42l-.38-.32a.15.15,0,0,1-.1-.14,2.13,2.13,0,0,0,.3-.89c0-.51-.11-2.65-3.41-2.65S64.65,8.51,64.65,11s1.57,7.2,6.71,7.2c3,0,3.62-1.67,3.62-1.67h1v4.38H70.38c-6.71,0-10.44-5.24-10.44-9,0-5.81,5-9,9.63-9A9.74,9.74,0,0,1,76.69,6.28Z"></path>
  <path class="cls-5" d="M87.64,21.48c-5.84,0-10-4.26-10-9.46s4.31-9.22,10-9.22,10,4,10,9.22S93.48,21.48,87.64,21.48ZM82.45,12.1c0,5.19,2.65,6.49,5.19,6.49S92.89,17,92.89,12.1s-3-6.5-5.25-6.5S82.45,6.91,82.45,12.1Z"></path>
  <path class="cls-5" d="M100.3,3.35h6.44l2.32,7.19,2.49-7.2h6.74V4.39a2.07,2.07,0,0,0-.65.43,1,1,0,0,0-.19.95c.05.43,1.79,12.17,1.84,12.6a4.09,4.09,0,0,0,.22,1c.11.3.62.54.62.54V21h-6.46V19.81s.57-.08.76-.35a1,1,0,0,0,.22-.87c-.05-.43-1.6-10.28-1.6-10.28L110.23,17h-3.41L104,8.85l-1.4,9.63a1.66,1.66,0,0,0,.16.89,1.1,1.1,0,0,0,.84.43V21H98V19.73a1.39,1.39,0,0,0,.78-.45,1.84,1.84,0,0,0,.37-.86l2-12.7a1.19,1.19,0,0,0,0-.69c-.15-.23-.91-.42-.91-.42Z"></path>
  <path class="cls-3" d="M126.3,3.88"></path>
  <path class="cls-6" d="M124.63,1.94h2A1.3,1.3,0,0,1,128,3.24a1.27,1.27,0,0,1-.76,1.1l1.1,1.45h-.91l-.92-1.34h-1.06V5.79h-.82Zm2,1.78c.22,0,.63-.07.63-.47s-.09-.53-.56-.53h-1.22v1Z"></path>
  <path class="cls-6" d="M22.13,6.15l-5.73,6.06-3.78-2.6s1.24-1.19.1-2.05c-.88-.68-3.37.76-3.26,3.57.12,3.25,2.13,5.09,4.34,5.09a2.64,2.64,0,0,0,2.6-1.66H21v3.82l6.48-17.1h7.41l6,15.37a2.94,2.94,0,0,0,.86,1s0-10.07,0-10.36a1.22,1.22,0,0,0-.21-.79A1.84,1.84,0,0,0,40.74,6V1.28H51.12c5.39,0,6.77,1.46,8.33,4.27A11.11,11.11,0,0,1,68.82.74C73.17.74,76.25,2.35,78,5A13.18,13.18,0,0,1,88,.71a11.38,11.38,0,0,1,10.09,5.5V1.28h10L109.2,4,110,1.28h10.33V5.94s-.6.16-.76.43a3.19,3.19,0,0,0-.14,1.11l1.44,9.2a1.42,1.42,0,0,0,.42.84,1,1,0,0,0,.7.22V23H111.61V19h-5.95v4H95.89V20.43a13.78,13.78,0,0,1-8.17,3.14,14.46,14.46,0,0,1-9.82-4.33V23H71c-6.16,0-11.45-3.38-12.93-9.52a18.69,18.69,0,0,1-7.49,3.71c-.29.06-.43.17-.43.48,0,.57,1.22.77,1.22.77V23h-38C6.33,23,.68,18.21.68,12.1S5.09.8,12.39.8A11,11,0,0,1,22.13,6.15Z"></path>
  <circle class="cls-7" cx="126.3" cy="3.88" r="3.02"></circle>
  <path class="cls-8" d="M126.3,3.88"></path>
  <path class="cls-4" d="M124.63,1.94h2A1.3,1.3,0,0,1,128,3.24a1.27,1.27,0,0,1-.76,1.1l1.1,1.45h-.91l-.92-1.34h-1.06V5.79h-.82Zm2,1.78c.22,0,.63-.07.63-.47s-.09-.53-.56-.53h-1.22v1Z"></path>
  <path class="cls-5" d="M19.4,6.25,16.34,9.45a.81.81,0,0,1-.3.08.77.77,0,0,1-.33-.13l-.37-.32a.14.14,0,0,1-.11-.13,2.11,2.11,0,0,0,.3-.89c0-.52-.11-2.65-3.41-2.65S7.36,8.47,7.36,11s1.57,7.19,6.71,7.19c3,0,3.62-1.68,3.62-1.68h1v4.39H13.09c-6.71,0-10.44-5.25-10.44-9,0-5.81,5.05-9,9.63-9A9.74,9.74,0,0,1,19.4,6.25Z"></path>
  <path class="cls-5" d="M28.86,3.34h4.62l5.63,14.71a4.31,4.31,0,0,0,.71,1.11,2.45,2.45,0,0,0,.92.54V21H33.95v-1.3a.68.68,0,0,0,.65-.33,1,1,0,0,0,.06-1.05c-.16-.38-1.3-3.38-1.3-3.38H27.81l-1.24,3.3a1.48,1.48,0,0,0,0,1c.18.45.81.51.81.51V21H21.94V19.7a2.51,2.51,0,0,0,.87-.54,2.4,2.4,0,0,0,.54-.84Zm-.14,8.82H32.3L30.46,7Z"></path>
  <path class="cls-5" d="M42.9,3.34h8.65c3.2,0,6.38,1.14,6.38,4.81s-2.32,5-4.32,5.9a41.29,41.29,0,0,1-5.36,1.89v2.81a1.23,1.23,0,0,0,.3.52,1.21,1.21,0,0,0,.57.41V21H42.84V19.7a1.48,1.48,0,0,0,.66-.36,1.22,1.22,0,0,0,.32-.6V6a1.26,1.26,0,0,0-.19-.76,4.67,4.67,0,0,0-.73-.51ZM48.31,6v7.52s5.08-2.11,5.08-5.09C53.39,4.74,48.31,6,48.31,6Z"></path>
  <path class="cls-5" d="M76.69,6.28,73.63,9.48a.87.87,0,0,1-.3.08A.77.77,0,0,1,73,9.42l-.38-.32a.15.15,0,0,1-.1-.14,2.13,2.13,0,0,0,.3-.89c0-.51-.11-2.65-3.41-2.65S64.65,8.51,64.65,11s1.57,7.2,6.71,7.2c3,0,3.62-1.67,3.62-1.67h1v4.38H70.38c-6.71,0-10.44-5.24-10.44-9,0-5.81,5-9,9.63-9A9.74,9.74,0,0,1,76.69,6.28Z"></path>
  <path class="cls-5" d="M87.64,21.48c-5.84,0-10-4.26-10-9.46s4.31-9.22,10-9.22,10,4,10,9.22S93.48,21.48,87.64,21.48ZM82.45,12.1c0,5.19,2.65,6.49,5.19,6.49S92.89,17,92.89,12.1s-3-6.5-5.25-6.5S82.45,6.91,82.45,12.1Z"></path>
  <path class="cls-5" d="M100.3,3.35h6.44l2.32,7.19,2.49-7.2h6.74V4.39a2.07,2.07,0,0,0-.65.43,1,1,0,0,0-.19.95c.05.43,1.79,12.17,1.84,12.6a4.09,4.09,0,0,0,.22,1c.11.3.62.54.62.54V21h-6.46V19.81s.57-.08.76-.35a1,1,0,0,0,.22-.87c-.05-.43-1.6-10.28-1.6-10.28L110.23,17h-3.41L104,8.85l-1.4,9.63a1.66,1.66,0,0,0,.16.89,1.1,1.1,0,0,0,.84.43V21H98V19.73a1.39,1.39,0,0,0,.78-.45,1.84,1.84,0,0,0,.37-.86l2-12.7a1.19,1.19,0,0,0,0-.69c-.15-.23-.91-.42-.91-.42Z"></path>
  <circle class="cls-9" cx="126.3" cy="3.88" r="3.02"></circle>
  <path class="cls-8" d="M126.3,3.88"></path>
  <path class="cls-6" d="M124.63,1.94h2A1.3,1.3,0,0,1,128,3.24a1.27,1.27,0,0,1-.76,1.1l1.1,1.45h-.91l-.92-1.34h-1.06V5.79h-.82Zm2,1.78c.22,0,.63-.07.63-.47s-.09-.53-.56-.53h-1.22v1Z"></path>
</svg>

